<svg width="35" height="35" viewBox="0 0 35 35" fill="none" xmlns="http://www.w3.org/2000/svg">
<path d="M17.5 2.625C13.5697 2.67269 9.81385 4.25518 7.03452 7.03452C4.25518 9.81385 2.67269 13.5697 2.625 17.5C2.67269 21.4303 4.25518 25.1861 7.03452 27.9655C9.81385 30.7448 13.5697 32.3273 17.5 32.375C21.4303 32.3273 25.1861 30.7448 27.9655 27.9655C30.7448 25.1861 32.3273 21.4303 32.375 17.5C32.3273 13.5697 30.7448 9.81385 27.9655 7.03452C25.1861 4.25518 21.4303 2.67269 17.5 2.625ZM26 18.5625H18.5625V26H16.4375V18.5625H9V16.4375H16.4375V9H18.5625V16.4375H26V18.5625Z" fill="#F8F8F8"/>
</svg>
