<svg width="36" height="35" viewBox="0 0 36 35" fill="none" xmlns="http://www.w3.org/2000/svg">
<path d="M32.3 14.6439H31.1253V14.5834H18.0003V20.4167H26.2421C25.0397 23.8124 21.8088 26.25 18.0003 26.25C13.1681 26.25 9.25033 22.3322 9.25033 17.5C9.25033 12.6678 13.1681 8.75002 18.0003 8.75002C20.2308 8.75002 22.2601 9.59148 23.8052 10.966L27.9301 6.84106C25.3255 4.41367 21.8416 2.91669 18.0003 2.91669C9.94668 2.91669 3.41699 9.44637 3.41699 17.5C3.41699 25.5537 9.94668 32.0834 18.0003 32.0834C26.054 32.0834 32.5837 25.5537 32.5837 17.5C32.5837 16.5222 32.483 15.5677 32.3 14.6439Z" fill="#FFC107"/>
<path d="M5.09766 10.7122L9.88901 14.2261C11.1855 11.0163 14.3253 8.75002 17.9995 8.75002C20.2301 8.75002 22.2593 9.59148 23.8044 10.966L27.9293 6.84106C25.3247 4.41367 21.8408 2.91669 17.9995 2.91669C12.3981 2.91669 7.54036 6.07908 5.09766 10.7122Z" fill="#FF3D00"/>
<path d="M18.0004 32.0833C21.7673 32.0833 25.19 30.6418 27.7778 28.2975L23.2642 24.4781C21.7509 25.629 19.9017 26.2515 18.0004 26.25C14.2073 26.25 10.9865 23.8314 9.7732 20.4561L5.01758 24.1201C7.43112 28.8429 12.3326 32.0833 18.0004 32.0833Z" fill="#4CAF50"/>
<path d="M32.2997 14.6438H31.125V14.5833H18V20.4166H26.2418C25.6666 22.0328 24.6306 23.445 23.2617 24.4788L23.2639 24.4774L27.7774 28.2968C27.458 28.587 32.5833 24.7916 32.5833 17.5C32.5833 16.5222 32.4827 15.5677 32.2997 14.6438Z" fill="#1976D2"/>
</svg>
