<svg width="187" height="57" viewBox="0 0 187 57" fill="none" xmlns="http://www.w3.org/2000/svg">
<path d="M22.68 2H37.56C37.88 3.48 38.7 5.42 40.02 7.82C41.38 10.22 42.22 11.96 42.54 13.04C39.7 10.84 36.86 8.62 34.02 6.38C30.5 4.5 26.82 3.56 22.98 3.56C17.3 3.56 13.42 5.28 11.34 8.72C9.3 12.12 8.28 16.58 8.28 22.1C8.28 28.26 9.84 34.3 12.96 40.22C16.08 46.1 20.58 49.04 26.46 49.04C31.26 49.04 34.8 48.12 37.08 46.28C39.36 44.44 41.24 42.08 42.72 39.2C42.72 42.92 41.5 45.8 39.06 47.84C36.62 49.88 32.06 50.9 25.38 50.9C18.34 50.9 12.5 48.98 7.86 45.14C3.22 41.3 0.9 35.54 0.9 27.86C0.9 19.9 3.04 13.6 7.32 8.96C11.6 4.32 16.72 2 22.68 2Z" fill="#7300FF"/>
<path d="M47.9723 20.168C48.5057 20.168 48.9537 20.36 49.3163 20.744C49.679 21.128 49.8603 21.6507 49.8603 22.312C49.8603 23.0587 49.5403 23.6453 48.9003 24.072C48.2603 24.4987 47.6843 24.712 47.1723 24.712C46.7243 24.712 46.383 24.4773 46.1483 24.008C45.935 23.5173 45.8283 22.952 45.8283 22.312C45.8283 21.5013 46.0203 20.9467 46.4043 20.648C46.7883 20.328 47.311 20.168 47.9723 20.168ZM47.5563 27.144C48.2177 27.144 48.6763 27.4 48.9323 27.912C49.2097 28.424 49.3483 29.032 49.3483 29.736V38.728C49.4337 39.3253 49.6577 39.624 50.0203 39.624C50.2763 39.624 50.575 39.4853 50.9163 39.208C51.2577 38.9307 51.4817 38.7493 51.5883 38.664C51.0763 39.5387 50.5537 40.1787 50.0203 40.584C49.5083 40.9893 48.9217 41.192 48.2603 41.192C47.7057 41.192 47.2577 40.9573 46.9163 40.488C46.575 40.0187 46.4043 39.464 46.4043 38.824V29.384C46.4043 28.9787 46.255 28.776 45.9563 28.776C45.551 28.776 44.9217 29.1387 44.0683 29.864C44.175 29.4587 44.6123 28.904 45.3803 28.2C46.1483 27.496 46.8737 27.144 47.5563 27.144ZM63.8041 38.984C63.8041 39.4533 63.9641 39.688 64.2841 39.688C64.7108 39.688 65.2974 39.336 66.0441 38.632C65.6174 39.4427 65.0734 40.072 64.4121 40.52C63.7721 40.968 63.1961 41.192 62.6841 41.192C62.1081 41.192 61.6388 41.0213 61.2761 40.68C60.9348 40.3173 60.7641 39.7733 60.7641 39.048L60.7961 31.848C60.7961 31.3573 60.7428 30.9733 60.6361 30.696C60.5294 30.3973 60.2308 30.248 59.7401 30.248C59.2068 30.248 58.5028 30.8133 57.6281 31.944C56.7534 33.0533 56.3161 33.704 56.3161 33.896V39.336C56.2094 39.784 55.8361 40.2107 55.1961 40.616C54.5774 41 53.9588 41.192 53.3401 41.192V30.248C53.3401 29.9067 53.2121 29.736 52.9561 29.736C52.6361 29.736 52.0281 30.024 51.1321 30.6C51.9428 29.576 52.6788 28.776 53.3401 28.2C54.0228 27.6027 54.5561 27.304 54.9401 27.304C55.5374 27.304 55.9108 27.6347 56.0601 28.296C56.2308 28.936 56.3161 29.9387 56.3161 31.304V32.488C57.1481 31.1867 58.0228 30.0027 58.9401 28.936C59.8788 27.848 60.8601 27.304 61.8841 27.304C62.6734 27.304 63.1961 27.5707 63.4521 28.104C63.7081 28.6373 63.8361 29.4373 63.8361 30.504C63.8361 30.824 63.8254 31.144 63.8041 31.464C63.8041 31.7627 63.8041 32.072 63.8041 32.392C63.8041 33.0107 63.7934 33.672 63.7721 34.376C63.7721 35.0587 63.7721 35.8907 63.7721 36.872C63.7721 37.4267 63.7721 37.9173 63.7721 38.344C63.7721 38.7493 63.7828 38.9627 63.8041 38.984ZM74.4693 27.176C75.3013 27.176 75.984 27.3253 76.5173 27.624C77.072 27.9227 77.8187 28.5413 78.7573 29.48L70.9813 37.256C71.408 37.96 71.9307 38.4187 72.5493 38.632C73.1893 38.824 73.904 38.92 74.6933 38.92C75.4827 38.92 76.2187 38.7387 76.9013 38.376C77.6053 38.0133 78.2347 37.6293 78.7893 37.224C77.936 38.5253 76.9973 39.5067 75.9733 40.168C74.9493 40.808 73.776 41.128 72.4533 41.128C70.5547 41.128 69.2107 40.52 68.4213 39.304C67.632 38.088 67.2373 36.776 67.2373 35.368C67.2373 32.8933 67.9307 30.9093 69.3173 29.416C70.704 27.9227 72.4213 27.176 74.4693 27.176ZM70.6933 36.52C71.44 35.7947 72.1867 35.0693 72.9333 34.344C74.064 33.128 74.6293 32.2107 74.6293 31.592C74.6293 30.8453 74.448 30.2693 74.0853 29.864C73.7227 29.4373 73.2427 29.224 72.6453 29.224C71.8987 29.224 71.312 29.672 70.8853 30.568C70.4587 31.4427 70.2453 32.488 70.2453 33.704C70.2453 34.216 70.2773 34.7067 70.3413 35.176C70.4053 35.624 70.5227 36.072 70.6933 36.52ZM98.6873 14.96H111.927C111.927 15.92 112.487 17.44 113.607 19.52C114.754 21.6 115.381 22.8667 115.487 23.32C113.114 20.68 110.807 18.8 108.567 17.68C106.354 16.5333 103.567 15.96 100.207 15.96C97.7273 15.96 95.8873 16.4667 94.6873 17.48C93.514 18.4933 92.9273 19.7733 92.9273 21.32C92.9273 24.04 94.994 25.8933 99.1273 26.88C103.261 27.8667 107.327 28.8133 111.327 29.72C115.647 31.3733 117.807 34.2933 117.807 38.48C117.807 41.7867 116.754 44.5867 114.647 46.88C112.541 49.2 109.007 50.36 104.047 50.36C101.221 50.36 98.634 50.0933 96.2873 49.56C93.9673 49.0267 91.954 47.8933 90.2473 46.16C88.5407 44.4267 87.6873 41.88 87.6873 38.52C87.6873 37.1867 87.834 36.0533 88.1273 35.12C88.4207 34.1867 89.0473 33.4533 90.0073 32.92C89.5807 33.4 89.3007 33.9467 89.1673 34.56C89.0607 35.1467 89.0073 35.8667 89.0073 36.72C89.0073 39.92 90.634 42.5333 93.8873 44.56C97.1673 46.6133 101.327 47.64 106.367 47.64C109.514 47.64 111.807 47.08 113.247 45.96C114.714 44.84 115.447 43.12 115.447 40.8C115.447 37.3867 113.341 35.04 109.127 33.76C105.207 32.8533 101.287 31.9467 97.3673 31.04C93.1273 29.5733 91.0073 26.8933 91.0073 23C91.0073 20.7867 91.7673 18.8933 93.2873 17.32C94.8073 15.7467 96.6073 14.96 98.6873 14.96ZM122.809 27.112C123.193 27.112 123.428 27.2827 123.513 27.624C123.62 27.9653 123.673 28.9253 123.673 30.504C124.249 29.8 124.836 29.0853 125.433 28.36C126.265 27.528 127.204 27.112 128.249 27.112C128.974 27.112 129.817 27.6987 130.777 28.872C131.737 30.024 132.217 31.6347 132.217 33.704C132.217 35.816 131.364 37.5867 129.657 39.016C127.972 40.4453 126.596 41.16 125.529 41.16C125.252 41.16 124.932 41.0427 124.569 40.808C124.228 40.552 123.929 40.3173 123.673 40.104V47.08C123.673 47.8693 124.036 48.616 124.761 49.32C125.486 50.024 125.902 50.4827 126.009 50.696C125.006 50.184 124.334 49.8747 123.993 49.768C123.673 49.6613 123.3 49.608 122.873 49.608C122.254 49.608 121.753 49.6933 121.369 49.864C121.006 50.0347 120.025 50.6427 118.425 51.688C118.51 51.432 118.916 50.9093 119.641 50.12C120.366 49.3307 120.729 48.4773 120.729 47.56V30.76C120.729 30.5467 120.676 30.3973 120.569 30.312C120.462 30.2267 120.313 30.184 120.121 30.184C119.737 30.184 119.385 30.2693 119.065 30.44C118.724 30.6107 118.468 30.7493 118.297 30.856C118.916 30.024 119.62 29.192 120.409 28.36C121.198 27.528 121.998 27.112 122.809 27.112ZM123.673 37.096C123.673 37.672 123.886 38.2053 124.313 38.696C124.761 39.1653 125.316 39.4 125.977 39.4C126.937 39.4 127.694 38.8773 128.249 37.832C128.825 36.7867 129.113 35.6773 129.113 34.504C129.113 32.9253 128.9 31.784 128.473 31.08C128.068 30.376 127.545 30.024 126.905 30.024C126.18 30.024 125.454 30.3653 124.729 31.048C124.025 31.7093 123.673 32.2 123.673 32.52V37.096ZM144.172 30.216L144.14 39.144C144.161 39.4213 144.289 39.56 144.524 39.56C144.844 39.56 145.452 39.2507 146.348 38.632C146.049 39.272 145.601 39.848 145.004 40.36C144.428 40.872 143.777 41.128 143.052 41.128C142.327 41.128 141.815 40.904 141.516 40.456C141.217 39.9867 141.068 39.4213 141.068 38.76V31.848C141.068 31.4 141.025 31.0587 140.94 30.824C140.855 30.568 140.588 30.44 140.14 30.44C139.436 30.44 138.7 30.9627 137.932 32.008C137.164 33.0533 136.78 33.7893 136.78 34.216V37.992C136.78 38.8027 136.481 39.528 135.884 40.168C135.287 40.808 134.551 41.128 133.676 41.128V25.192C133.676 23.656 134.092 22.3547 134.924 21.288C135.756 20.2 136.844 19.656 138.188 19.656H141.068C140.385 20.8933 139.5 21.5547 138.412 21.64C137.324 21.704 136.78 21.896 136.78 22.216V32.552C137.847 30.76 138.86 29.4267 139.82 28.552C140.801 27.6773 141.623 27.24 142.284 27.24C143.052 27.24 143.553 27.4533 143.788 27.88C144.044 28.3067 144.172 29.0853 144.172 30.216ZM154.946 27.176C155.778 27.176 156.461 27.3253 156.994 27.624C157.549 27.9227 158.295 28.5413 159.234 29.48L151.458 37.256C151.885 37.96 152.407 38.4187 153.026 38.632C153.666 38.824 154.381 38.92 155.17 38.92C155.959 38.92 156.695 38.7387 157.378 38.376C158.082 38.0133 158.711 37.6293 159.266 37.224C158.413 38.5253 157.474 39.5067 156.45 40.168C155.426 40.808 154.253 41.128 152.93 41.128C151.031 41.128 149.687 40.52 148.898 39.304C148.109 38.088 147.714 36.776 147.714 35.368C147.714 32.8933 148.407 30.9093 149.794 29.416C151.181 27.9227 152.898 27.176 154.946 27.176ZM151.17 36.52C151.917 35.7947 152.663 35.0693 153.41 34.344C154.541 33.128 155.106 32.2107 155.106 31.592C155.106 30.8453 154.925 30.2693 154.562 29.864C154.199 29.4373 153.719 29.224 153.122 29.224C152.375 29.224 151.789 29.672 151.362 30.568C150.935 31.4427 150.722 32.488 150.722 33.704C150.722 34.216 150.754 34.7067 150.818 35.176C150.882 35.624 150.999 36.072 151.17 36.52ZM163.332 27.144C163.929 27.144 164.303 27.432 164.452 28.008C164.623 28.5627 164.708 29.544 164.708 30.952V32.392C165.519 31.2613 166.34 30.1307 167.172 29C168.217 27.7627 169.252 27.144 170.276 27.144C170.852 27.144 171.3 27.3573 171.62 27.784C171.961 28.1893 172.132 28.6907 172.132 29.288C172.132 30.0133 171.727 30.824 170.916 31.72C170.105 32.5947 169.305 33.416 168.516 34.184C168.623 33.9707 168.729 33.6187 168.836 33.128C168.964 32.616 169.028 32.168 169.028 31.784C169.028 31.3147 168.943 30.9307 168.772 30.632C168.623 30.3333 168.356 30.184 167.972 30.184C167.567 30.184 167.055 30.5573 166.436 31.304C165.839 32.0293 165.263 32.7653 164.708 33.512V39.496C164.345 39.8373 163.919 40.1893 163.428 40.552C162.937 40.8933 162.372 41.1067 161.732 41.192V30.6C161.732 30.152 161.519 29.928 161.092 29.928C160.9 29.928 160.676 30.0027 160.42 30.152C160.164 30.28 159.876 30.504 159.556 30.824C159.897 30.12 160.505 29.3307 161.38 28.456C162.255 27.5813 162.905 27.144 163.332 27.144ZM181.071 27.176C181.903 27.176 182.586 27.3253 183.119 27.624C183.674 27.9227 184.42 28.5413 185.359 29.48L177.583 37.256C178.01 37.96 178.532 38.4187 179.151 38.632C179.791 38.824 180.506 38.92 181.295 38.92C182.084 38.92 182.82 38.7387 183.503 38.376C184.207 38.0133 184.836 37.6293 185.391 37.224C184.538 38.5253 183.599 39.5067 182.575 40.168C181.551 40.808 180.378 41.128 179.055 41.128C177.156 41.128 175.812 40.52 175.023 39.304C174.234 38.088 173.839 36.776 173.839 35.368C173.839 32.8933 174.532 30.9093 175.919 29.416C177.306 27.9227 179.023 27.176 181.071 27.176ZM177.295 36.52C178.042 35.7947 178.788 35.0693 179.535 34.344C180.666 33.128 181.231 32.2107 181.231 31.592C181.231 30.8453 181.05 30.2693 180.687 29.864C180.324 29.4373 179.844 29.224 179.247 29.224C178.5 29.224 177.914 29.672 177.487 30.568C177.06 31.4427 176.847 32.488 176.847 33.704C176.847 34.216 176.879 34.7067 176.943 35.176C177.007 35.624 177.124 36.072 177.295 36.52Z" fill="white"/>
</svg>
