<svg width="38" height="38" viewBox="0 0 38 38" fill="none" xmlns="http://www.w3.org/2000/svg">
<path fill-rule="evenodd" clip-rule="evenodd" d="M3.79987 7.59998C3.46393 7.59998 3.14175 7.73343 2.9042 7.97097C2.66666 8.20852 2.5332 8.5307 2.5332 8.86664C2.5332 9.20258 2.66666 9.52476 2.9042 9.76231C3.14175 9.99986 3.46393 10.1333 3.79987 10.1333H34.1999C34.5358 10.1333 34.858 9.99986 35.0955 9.76231C35.3331 9.52476 35.4665 9.20258 35.4665 8.86664C35.4665 8.5307 35.3331 8.20852 35.0955 7.97097C34.858 7.73343 34.5358 7.59998 34.1999 7.59998H3.79987ZM2.5332 19C2.5332 18.664 2.66666 18.3419 2.9042 18.1043C3.14175 17.8668 3.46393 17.7333 3.79987 17.7333H34.1999C34.5358 17.7333 34.858 17.8668 35.0955 18.1043C35.3331 18.3419 35.4665 18.664 35.4665 19C35.4665 19.3359 35.3331 19.6581 35.0955 19.8956C34.858 20.1332 34.5358 20.2666 34.1999 20.2666H3.79987C3.46393 20.2666 3.14175 20.1332 2.9042 19.8956C2.66666 19.6581 2.5332 19.3359 2.5332 19ZM2.5332 29.1333C2.5332 28.7974 2.66666 28.4752 2.9042 28.2376C3.14175 28.0001 3.46393 27.8666 3.79987 27.8666H34.1999C34.5358 27.8666 34.858 28.0001 35.0955 28.2376C35.3331 28.4752 35.4665 28.7974 35.4665 29.1333C35.4665 29.4692 35.3331 29.7914 35.0955 30.029C34.858 30.2665 34.5358 30.4 34.1999 30.4H3.79987C3.46393 30.4 3.14175 30.2665 2.9042 30.029C2.66666 29.7914 2.5332 29.4692 2.5332 29.1333Z" fill="#F8F8F8"/>
</svg>
