<svg width="50" height="50" viewBox="0 0 50 50" fill="none" xmlns="http://www.w3.org/2000/svg">
<path fill-rule="evenodd" clip-rule="evenodd" d="M26.8919 3.29373C26.7251 2.93235 26.4584 2.62629 26.1231 2.41177C25.7879 2.19726 25.3982 2.08325 25.0002 2.08325C24.6022 2.08325 24.2125 2.19726 23.8773 2.41177C23.5421 2.62629 23.2753 2.93235 23.1085 3.29373L17.1294 16.2521L2.96063 17.9333C2.56531 17.98 2.19165 18.1389 1.88385 18.3914C1.57606 18.6438 1.34702 18.9791 1.22384 19.3576C1.10066 19.7361 1.0885 20.142 1.1888 20.5272C1.2891 20.9124 1.49766 21.2608 1.78979 21.5312L12.269 31.2187L9.48771 45.2187C9.41046 45.609 9.44657 46.0132 9.59176 46.3836C9.73696 46.754 9.98517 47.0751 10.3071 47.3089C10.6289 47.5427 11.011 47.6794 11.4082 47.7029C11.8053 47.7265 12.2009 47.6358 12.5481 47.4416L25.0002 40.4708L37.4523 47.4416C37.7997 47.6366 38.1958 47.7279 38.5936 47.7046C38.9913 47.6813 39.374 47.5445 39.6964 47.3103C40.0187 47.0761 40.2671 46.7544 40.4122 46.3833C40.5572 46.0122 40.5929 45.6073 40.5148 45.2166L37.7335 31.2208L48.2106 21.5312C48.5028 21.2608 48.7113 20.9124 48.8116 20.5272C48.9119 20.142 48.8998 19.7361 48.7766 19.3576C48.6534 18.9791 48.4244 18.6438 48.1166 18.3914C47.8088 18.1389 47.4351 17.98 47.0398 17.9333L32.869 16.25L26.8919 3.29373Z" fill="#C0A6FF"/>
</svg>
