<svg width="186" height="50" viewBox="0 0 186 50" fill="none" xmlns="http://www.w3.org/2000/svg">
<path d="M22.68 -2.14577e-06H37.56C37.88 1.48 38.7 3.42 40.02 5.82C41.38 8.22 42.22 9.96 42.54 11.04C39.7 8.84 36.86 6.62 34.02 4.38C30.5 2.5 26.82 1.56 22.98 1.56C17.3 1.56 13.42 3.28 11.34 6.72C9.3 10.12 8.28 14.58 8.28 20.1C8.28 26.26 9.84 32.3 12.96 38.22C16.08 44.1 20.58 47.04 26.46 47.04C31.26 47.04 34.8 46.12 37.08 44.28C39.36 42.44 41.24 40.08 42.72 37.2C42.72 40.92 41.5 43.8 39.06 45.84C36.62 47.88 32.06 48.9 25.38 48.9C18.34 48.9 12.5 46.98 7.86 43.14C3.22 39.3 0.9 33.54 0.9 25.86C0.9 17.9 3.04 11.6 7.32 6.96C11.6 2.32 16.72 -2.14577e-06 22.68 -2.14577e-06Z" fill="#7300FF"/>
<path d="M47.9723 18.168C48.5057 18.168 48.9537 18.36 49.3163 18.744C49.679 19.128 49.8603 19.6507 49.8603 20.312C49.8603 21.0587 49.5403 21.6453 48.9003 22.072C48.2603 22.4987 47.6843 22.712 47.1723 22.712C46.7243 22.712 46.383 22.4773 46.1483 22.008C45.935 21.5173 45.8283 20.952 45.8283 20.312C45.8283 19.5013 46.0203 18.9467 46.4043 18.648C46.7883 18.328 47.311 18.168 47.9723 18.168ZM47.5563 25.144C48.2177 25.144 48.6763 25.4 48.9323 25.912C49.2097 26.424 49.3483 27.032 49.3483 27.736V36.728C49.4337 37.3253 49.6577 37.624 50.0203 37.624C50.2763 37.624 50.575 37.4853 50.9163 37.208C51.2577 36.9307 51.4817 36.7493 51.5883 36.664C51.0763 37.5387 50.5537 38.1787 50.0203 38.584C49.5083 38.9893 48.9217 39.192 48.2603 39.192C47.7057 39.192 47.2577 38.9573 46.9163 38.488C46.575 38.0187 46.4043 37.464 46.4043 36.824V27.384C46.4043 26.9787 46.255 26.776 45.9563 26.776C45.551 26.776 44.9217 27.1387 44.0683 27.864C44.175 27.4587 44.6123 26.904 45.3803 26.2C46.1483 25.496 46.8737 25.144 47.5563 25.144ZM63.8041 36.984C63.8041 37.4533 63.9641 37.688 64.2841 37.688C64.7108 37.688 65.2974 37.336 66.0441 36.632C65.6174 37.4427 65.0734 38.072 64.4121 38.52C63.7721 38.968 63.1961 39.192 62.6841 39.192C62.1081 39.192 61.6388 39.0213 61.2761 38.68C60.9348 38.3173 60.7641 37.7733 60.7641 37.048L60.7961 29.848C60.7961 29.3573 60.7428 28.9733 60.6361 28.696C60.5294 28.3973 60.2308 28.248 59.7401 28.248C59.2068 28.248 58.5028 28.8133 57.6281 29.944C56.7534 31.0533 56.3161 31.704 56.3161 31.896V37.336C56.2094 37.784 55.8361 38.2107 55.1961 38.616C54.5774 39 53.9588 39.192 53.3401 39.192V28.248C53.3401 27.9067 53.2121 27.736 52.9561 27.736C52.6361 27.736 52.0281 28.024 51.1321 28.6C51.9428 27.576 52.6788 26.776 53.3401 26.2C54.0228 25.6027 54.5561 25.304 54.9401 25.304C55.5374 25.304 55.9108 25.6347 56.0601 26.296C56.2308 26.936 56.3161 27.9387 56.3161 29.304V30.488C57.1481 29.1867 58.0228 28.0027 58.9401 26.936C59.8788 25.848 60.8601 25.304 61.8841 25.304C62.6734 25.304 63.1961 25.5707 63.4521 26.104C63.7081 26.6373 63.8361 27.4373 63.8361 28.504C63.8361 28.824 63.8254 29.144 63.8041 29.464C63.8041 29.7627 63.8041 30.072 63.8041 30.392C63.8041 31.0107 63.7934 31.672 63.7721 32.376C63.7721 33.0587 63.7721 33.8907 63.7721 34.872C63.7721 35.4267 63.7721 35.9173 63.7721 36.344C63.7721 36.7493 63.7828 36.9627 63.8041 36.984ZM74.4693 25.176C75.3013 25.176 75.984 25.3253 76.5173 25.624C77.072 25.9227 77.8187 26.5413 78.7573 27.48L70.9813 35.256C71.408 35.96 71.9307 36.4187 72.5493 36.632C73.1893 36.824 73.904 36.92 74.6933 36.92C75.4827 36.92 76.2187 36.7387 76.9013 36.376C77.6053 36.0133 78.2347 35.6293 78.7893 35.224C77.936 36.5253 76.9973 37.5067 75.9733 38.168C74.9493 38.808 73.776 39.128 72.4533 39.128C70.5547 39.128 69.2107 38.52 68.4213 37.304C67.632 36.088 67.2373 34.776 67.2373 33.368C67.2373 30.8933 67.9307 28.9093 69.3173 27.416C70.704 25.9227 72.4213 25.176 74.4693 25.176ZM70.6933 34.52C71.44 33.7947 72.1867 33.0693 72.9333 32.344C74.064 31.128 74.6293 30.2107 74.6293 29.592C74.6293 28.8453 74.448 28.2693 74.0853 27.864C73.7227 27.4373 73.2427 27.224 72.6453 27.224C71.8987 27.224 71.312 27.672 70.8853 28.568C70.4587 29.4427 70.2453 30.488 70.2453 31.704C70.2453 32.216 70.2773 32.7067 70.3413 33.176C70.4053 33.624 70.5227 34.072 70.6933 34.52ZM98.6873 12.96H111.927C111.927 13.92 112.487 15.44 113.607 17.52C114.754 19.6 115.381 20.8667 115.487 21.32C113.114 18.68 110.807 16.8 108.567 15.68C106.354 14.5333 103.567 13.96 100.207 13.96C97.7273 13.96 95.8873 14.4667 94.6873 15.48C93.514 16.4933 92.9273 17.7733 92.9273 19.32C92.9273 22.04 94.994 23.8933 99.1273 24.88C103.261 25.8667 107.327 26.8133 111.327 27.72C115.647 29.3733 117.807 32.2933 117.807 36.48C117.807 39.7867 116.754 42.5867 114.647 44.88C112.541 47.2 109.007 48.36 104.047 48.36C101.221 48.36 98.634 48.0933 96.2873 47.56C93.9673 47.0267 91.954 45.8933 90.2473 44.16C88.5407 42.4267 87.6873 39.88 87.6873 36.52C87.6873 35.1867 87.834 34.0533 88.1273 33.12C88.4207 32.1867 89.0473 31.4533 90.0073 30.92C89.5807 31.4 89.3007 31.9467 89.1673 32.56C89.0607 33.1467 89.0073 33.8667 89.0073 34.72C89.0073 37.92 90.634 40.5333 93.8873 42.56C97.1673 44.6133 101.327 45.64 106.367 45.64C109.514 45.64 111.807 45.08 113.247 43.96C114.714 42.84 115.447 41.12 115.447 38.8C115.447 35.3867 113.341 33.04 109.127 31.76C105.207 30.8533 101.287 29.9467 97.3673 29.04C93.1273 27.5733 91.0073 24.8933 91.0073 21C91.0073 18.7867 91.7673 16.8933 93.2873 15.32C94.8073 13.7467 96.6073 12.96 98.6873 12.96ZM122.809 25.112C123.193 25.112 123.428 25.2827 123.513 25.624C123.62 25.9653 123.673 26.9253 123.673 28.504C124.249 27.8 124.836 27.0853 125.433 26.36C126.265 25.528 127.204 25.112 128.249 25.112C128.974 25.112 129.817 25.6987 130.777 26.872C131.737 28.024 132.217 29.6347 132.217 31.704C132.217 33.816 131.364 35.5867 129.657 37.016C127.972 38.4453 126.596 39.16 125.529 39.16C125.252 39.16 124.932 39.0427 124.569 38.808C124.228 38.552 123.929 38.3173 123.673 38.104V45.08C123.673 45.8693 124.036 46.616 124.761 47.32C125.486 48.024 125.902 48.4827 126.009 48.696C125.006 48.184 124.334 47.8747 123.993 47.768C123.673 47.6613 123.3 47.608 122.873 47.608C122.254 47.608 121.753 47.6933 121.369 47.864C121.006 48.0347 120.025 48.6427 118.425 49.688C118.51 49.432 118.916 48.9093 119.641 48.12C120.366 47.3307 120.729 46.4773 120.729 45.56V28.76C120.729 28.5467 120.676 28.3973 120.569 28.312C120.462 28.2267 120.313 28.184 120.121 28.184C119.737 28.184 119.385 28.2693 119.065 28.44C118.724 28.6107 118.468 28.7493 118.297 28.856C118.916 28.024 119.62 27.192 120.409 26.36C121.198 25.528 121.998 25.112 122.809 25.112ZM123.673 35.096C123.673 35.672 123.886 36.2053 124.313 36.696C124.761 37.1653 125.316 37.4 125.977 37.4C126.937 37.4 127.694 36.8773 128.249 35.832C128.825 34.7867 129.113 33.6773 129.113 32.504C129.113 30.9253 128.9 29.784 128.473 29.08C128.068 28.376 127.545 28.024 126.905 28.024C126.18 28.024 125.454 28.3653 124.729 29.048C124.025 29.7093 123.673 30.2 123.673 30.52V35.096ZM144.172 28.216L144.14 37.144C144.161 37.4213 144.289 37.56 144.524 37.56C144.844 37.56 145.452 37.2507 146.348 36.632C146.049 37.272 145.601 37.848 145.004 38.36C144.428 38.872 143.777 39.128 143.052 39.128C142.327 39.128 141.815 38.904 141.516 38.456C141.217 37.9867 141.068 37.4213 141.068 36.76V29.848C141.068 29.4 141.025 29.0587 140.94 28.824C140.855 28.568 140.588 28.44 140.14 28.44C139.436 28.44 138.7 28.9627 137.932 30.008C137.164 31.0533 136.78 31.7893 136.78 32.216V35.992C136.78 36.8027 136.481 37.528 135.884 38.168C135.287 38.808 134.551 39.128 133.676 39.128V23.192C133.676 21.656 134.092 20.3547 134.924 19.288C135.756 18.2 136.844 17.656 138.188 17.656H141.068C140.385 18.8933 139.5 19.5547 138.412 19.64C137.324 19.704 136.78 19.896 136.78 20.216V30.552C137.847 28.76 138.86 27.4267 139.82 26.552C140.801 25.6773 141.623 25.24 142.284 25.24C143.052 25.24 143.553 25.4533 143.788 25.88C144.044 26.3067 144.172 27.0853 144.172 28.216ZM154.946 25.176C155.778 25.176 156.461 25.3253 156.994 25.624C157.549 25.9227 158.295 26.5413 159.234 27.48L151.458 35.256C151.885 35.96 152.407 36.4187 153.026 36.632C153.666 36.824 154.381 36.92 155.17 36.92C155.959 36.92 156.695 36.7387 157.378 36.376C158.082 36.0133 158.711 35.6293 159.266 35.224C158.413 36.5253 157.474 37.5067 156.45 38.168C155.426 38.808 154.253 39.128 152.93 39.128C151.031 39.128 149.687 38.52 148.898 37.304C148.109 36.088 147.714 34.776 147.714 33.368C147.714 30.8933 148.407 28.9093 149.794 27.416C151.181 25.9227 152.898 25.176 154.946 25.176ZM151.17 34.52C151.917 33.7947 152.663 33.0693 153.41 32.344C154.541 31.128 155.106 30.2107 155.106 29.592C155.106 28.8453 154.925 28.2693 154.562 27.864C154.199 27.4373 153.719 27.224 153.122 27.224C152.375 27.224 151.789 27.672 151.362 28.568C150.935 29.4427 150.722 30.488 150.722 31.704C150.722 32.216 150.754 32.7067 150.818 33.176C150.882 33.624 150.999 34.072 151.17 34.52ZM163.332 25.144C163.929 25.144 164.303 25.432 164.452 26.008C164.623 26.5627 164.708 27.544 164.708 28.952V30.392C165.519 29.2613 166.34 28.1307 167.172 27C168.217 25.7627 169.252 25.144 170.276 25.144C170.852 25.144 171.3 25.3573 171.62 25.784C171.961 26.1893 172.132 26.6907 172.132 27.288C172.132 28.0133 171.727 28.824 170.916 29.72C170.105 30.5947 169.305 31.416 168.516 32.184C168.623 31.9707 168.729 31.6187 168.836 31.128C168.964 30.616 169.028 30.168 169.028 29.784C169.028 29.3147 168.943 28.9307 168.772 28.632C168.623 28.3333 168.356 28.184 167.972 28.184C167.567 28.184 167.055 28.5573 166.436 29.304C165.839 30.0293 165.263 30.7653 164.708 31.512V37.496C164.345 37.8373 163.919 38.1893 163.428 38.552C162.937 38.8933 162.372 39.1067 161.732 39.192V28.6C161.732 28.152 161.519 27.928 161.092 27.928C160.9 27.928 160.676 28.0027 160.42 28.152C160.164 28.28 159.876 28.504 159.556 28.824C159.897 28.12 160.505 27.3307 161.38 26.456C162.255 25.5813 162.905 25.144 163.332 25.144ZM181.071 25.176C181.903 25.176 182.586 25.3253 183.119 25.624C183.674 25.9227 184.42 26.5413 185.359 27.48L177.583 35.256C178.01 35.96 178.532 36.4187 179.151 36.632C179.791 36.824 180.506 36.92 181.295 36.92C182.084 36.92 182.82 36.7387 183.503 36.376C184.207 36.0133 184.836 35.6293 185.391 35.224C184.538 36.5253 183.599 37.5067 182.575 38.168C181.551 38.808 180.378 39.128 179.055 39.128C177.156 39.128 175.812 38.52 175.023 37.304C174.234 36.088 173.839 34.776 173.839 33.368C173.839 30.8933 174.532 28.9093 175.919 27.416C177.306 25.9227 179.023 25.176 181.071 25.176ZM177.295 34.52C178.042 33.7947 178.788 33.0693 179.535 32.344C180.666 31.128 181.231 30.2107 181.231 29.592C181.231 28.8453 181.05 28.2693 180.687 27.864C180.324 27.4373 179.844 27.224 179.247 27.224C178.5 27.224 177.914 27.672 177.487 28.568C177.06 29.4427 176.847 30.488 176.847 31.704C176.847 32.216 176.879 32.7067 176.943 33.176C177.007 33.624 177.124 34.072 177.295 34.52Z" fill="white"/>
</svg>
