<svg width="43" height="43" viewBox="0 0 43 43" fill="none" xmlns="http://www.w3.org/2000/svg">
<path d="M42.3127 40.6031L30.5127 28.8031C33.3483 25.3989 34.7623 21.0325 34.4606 16.6123C34.1589 12.1921 32.1647 8.05839 28.8928 5.07109C25.6209 2.08378 21.3232 0.472896 16.8939 0.573539C12.4645 0.674182 8.24451 2.4786 5.11168 5.61144C1.97885 8.74427 0.174426 12.9643 0.0737831 17.3937C-0.0268601 21.823 1.58403 26.1206 4.57133 29.3925C7.55863 32.6644 11.6924 34.6587 16.1126 34.9604C20.5328 35.2621 24.8991 33.8481 28.3033 31.0125L40.1033 42.8125L42.3127 40.6031ZM3.25021 17.8125C3.25021 15.0312 4.07496 12.3123 5.62017 9.99976C7.16538 7.68719 9.36164 5.88477 11.9312 4.82041C14.5008 3.75605 17.3283 3.47757 20.0562 4.02017C22.784 4.56278 25.2897 5.9021 27.2564 7.86878C29.2231 9.83545 30.5624 12.3412 31.105 15.069C31.6476 17.7969 31.3691 20.6244 30.3048 23.194C29.2404 25.7635 27.438 27.9598 25.1254 29.505C22.8129 31.0502 20.094 31.875 17.3127 31.875C13.5844 31.8708 10.0099 30.3879 7.37359 27.7516C4.73726 25.1153 3.25435 21.5408 3.25021 17.8125Z" fill="#F8F8F8"/>
</svg>
