<svg width="29" height="28" viewBox="0 0 29 28" fill="none" xmlns="http://www.w3.org/2000/svg">
<path d="M14.5003 2.33331C16.0474 2.33331 17.5312 2.94789 18.6251 4.04186C19.7191 5.13582 20.3337 6.61955 20.3337 8.16665V11.6666C21.2619 11.6666 22.1522 12.0354 22.8085 12.6918C23.4649 13.3481 23.8337 14.2384 23.8337 15.1666V22.1666C23.8337 23.0949 23.4649 23.9851 22.8085 24.6415C22.1522 25.2979 21.2619 25.6666 20.3337 25.6666H8.66699C7.73873 25.6666 6.8485 25.2979 6.19212 24.6415C5.53574 23.9851 5.16699 23.0949 5.16699 22.1666V15.1666C5.16699 14.2384 5.53574 13.3481 6.19212 12.6918C6.8485 12.0354 7.73873 11.6666 8.66699 11.6666V8.16665C8.66699 6.61955 9.28157 5.13582 10.3755 4.04186C11.4695 2.94789 12.9532 2.33331 14.5003 2.33331ZM14.5003 16.3333C13.9117 16.3331 13.3447 16.5555 12.913 16.9557C12.4814 17.356 12.217 17.9046 12.1728 18.4916L12.167 18.6666C12.167 19.1281 12.3038 19.5793 12.5602 19.963C12.8166 20.3467 13.181 20.6458 13.6074 20.8224C14.0338 20.999 14.5029 21.0452 14.9555 20.9551C15.4082 20.8651 15.8239 20.6429 16.1502 20.3166C16.4766 19.9902 16.6988 19.5745 16.7888 19.1219C16.8789 18.6692 16.8326 18.2001 16.656 17.7737C16.4794 17.3474 16.1804 16.9829 15.7967 16.7266C15.4129 16.4702 14.9618 16.3333 14.5003 16.3333ZM14.5003 4.66665C13.5721 4.66665 12.6818 5.0354 12.0255 5.69177C11.3691 6.34815 11.0003 7.23839 11.0003 8.16665V11.6666H18.0003V8.16665C18.0003 7.23839 17.6316 6.34815 16.9752 5.69177C16.3188 5.0354 15.4286 4.66665 14.5003 4.66665Z" fill="white"/>
</svg>
