<svg width="20" height="20" viewBox="0 0 20 20" fill="none" xmlns="http://www.w3.org/2000/svg">
<path d="M3.3335 14.9837V8.09116C3.3335 5.06283 3.3335 3.54949 4.31016 2.60783C5.28683 1.66616 6.85766 1.66699 10.0002 1.66699C13.1427 1.66699 14.7143 1.66699 15.6902 2.60783C16.6668 3.54783 16.6668 5.06199 16.6668 8.09033V14.9845C16.6668 16.9062 16.6668 17.867 16.0227 18.2103C14.7752 18.877 12.436 16.6545 11.3252 15.9853C10.681 15.5978 10.3585 15.4037 10.0002 15.4037C9.64183 15.4037 9.31933 15.5978 8.67516 15.9853C7.56433 16.6545 5.22516 18.877 3.97766 18.2103C3.3335 17.867 3.3335 16.9062 3.3335 14.9845" stroke="#F8F8F8" stroke-width="1.5" stroke-linecap="round" stroke-linejoin="round"/>
</svg>
