<svg id="SvgjsSvg1001" width="288" height="288" xmlns="http://www.w3.org/2000/svg" version="1.1" xmlns:xlink="http://www.w3.org/1999/xlink" xmlns:svgjs="http://svgjs.com/svgjs"><defs id="SvgjsDefs1002"></defs><g id="SvgjsG1008"><svg xmlns="http://www.w3.org/2000/svg" enable-background="new 0 0 100 100" version="1.0" viewBox="0 0 100 100" width="288" height="288"><path d="M86.279,80.387c1.628,1.628,1.628,4.264,0,5.892c-0.814,0.814-1.88,1.221-2.946,1.221c-1.066,0-2.132-0.407-2.946-1.221
		L50,55.892L19.613,86.279c-0.814,0.814-1.88,1.221-2.946,1.221c-1.066,0-2.132-0.407-2.946-1.221c-1.628-1.628-1.628-4.264,0-5.892
		L44.108,50L13.721,19.613c-1.628-1.628-1.628-4.264,0-5.892s4.264-1.628,5.892,0L50,44.108l30.387-30.387
		c1.628-1.628,4.264-1.628,5.892,0s1.628,4.264,0,5.892L55.892,50L86.279,80.387z" fill="#ffffff" class="svgShape color000000-0 selectable"></path></svg></g></svg>