<svg width="29" height="27" viewBox="0 0 29 27" fill="none" xmlns="http://www.w3.org/2000/svg">
<path fill-rule="evenodd" clip-rule="evenodd" d="M15.5972 0.91033C15.5004 0.700728 15.3457 0.523216 15.1513 0.398795C14.9568 0.274374 14.7308 0.208252 14.5 0.208252C14.2692 0.208252 14.0431 0.274374 13.8487 0.398795C13.6543 0.523216 13.4995 0.700728 13.4028 0.91033L9.93491 8.42616L1.71704 9.40129C1.48776 9.42836 1.27103 9.52055 1.09251 9.66695C0.913986 9.81335 0.781143 10.0078 0.7097 10.2274C0.638256 10.4469 0.631204 10.6823 0.689378 10.9058C0.747551 11.1292 0.868515 11.3313 1.03795 11.4881L7.11587 17.1068L5.50274 25.2268C5.45794 25.4532 5.47888 25.6876 5.5631 25.9025C5.64731 26.1173 5.79127 26.3035 5.97797 26.4391C6.16466 26.5747 6.38628 26.654 6.61662 26.6677C6.84696 26.6813 7.07639 26.6287 7.27779 26.5161L14.5 22.473L21.7222 26.5161C21.9237 26.6292 22.1535 26.6821 22.3841 26.6686C22.6148 26.6551 22.8368 26.5758 23.0238 26.4399C23.2107 26.3041 23.3548 26.1175 23.4389 25.9023C23.5231 25.6871 23.5437 25.4522 23.4985 25.2256L21.8853 17.108L27.962 11.4881C28.1315 11.3313 28.2524 11.1292 28.3106 10.9058C28.3688 10.6823 28.3617 10.4469 28.2903 10.2274C28.2188 10.0078 28.086 9.81335 27.9075 9.66695C27.729 9.52055 27.5122 9.42836 27.283 9.40129L19.0639 8.42496L15.5972 0.91033Z" fill="#FFC700"/>
</svg>
